<svg width="66" height="58" viewBox="0 0 66 58" fill="none" xmlns="http://www.w3.org/2000/svg">
<g id="Group 1184">
<path id="Vector" d="M40.0003 21.9417C43.3008 21.9417 44.9509 21.9417 46.2528 21.4036C47.9882 20.6862 49.3673 19.3102 50.0863 17.5782C50.6253 16.2792 50.6253 14.6325 50.6253 11.339C50.6253 8.04553 50.6253 6.39879 50.0863 5.09979C49.3673 3.36784 47.9882 1.99179 46.2528 1.27438C44.9509 0.736327 43.3008 0.736328 40.0003 0.736328H11.667C8.36658 0.736328 6.71638 0.736327 5.41464 1.27438C3.67905 1.99179 2.3001 3.36784 1.58118 5.09979C1.04199 6.39879 1.04199 8.04553 1.04199 11.339C1.04199 14.6325 1.04199 16.2792 1.58118 17.5782C2.3001 19.3102 3.67905 20.6862 5.41464 21.4036C6.71638 21.9417 8.36658 21.9417 11.667 21.9417H40.0003Z" stroke="#103E84" stroke-width="0.75" stroke-linecap="round" stroke-linejoin="round"/>
<path id="Vector_2" d="M54.167 57.2835C57.4675 57.2835 59.1175 57.2835 60.4195 56.7456C62.1549 56.0281 63.534 54.6519 64.2529 52.9201C64.792 51.6209 64.792 49.9743 64.792 46.6808C64.792 43.3873 64.792 41.7407 64.2529 40.4415C63.534 38.7097 62.1549 37.3335 60.4195 36.616C59.1175 36.0781 57.4675 36.0781 54.167 36.0781H11.667C8.36658 36.0781 6.71638 36.0781 5.41464 36.616C3.67905 37.3335 2.3001 38.7097 1.58118 40.4415C1.04199 41.7407 1.04199 43.3873 1.04199 46.6808C1.04199 49.9743 1.04199 51.6209 1.58118 52.9201C2.3001 54.6519 3.67905 56.0281 5.41464 56.7456C6.71638 57.2835 8.36658 57.2835 11.667 57.2835H54.167Z" stroke="#103E84" stroke-width="0.75" stroke-linecap="round" stroke-linejoin="round"/>
</g>
</svg>
